<?xml version="1.0" standalone="no"?>
<!DOCTYPE svg PUBLIC "-//W3C//DTD SVG 20010904//EN"
 "http://www.w3.org/TR/2001/REC-SVG-20010904/DTD/svg10.dtd">
<svg version="1.0" xmlns="http://www.w3.org/2000/svg"
 width="1122.000000pt" height="1117.000000pt" viewBox="0 0 1122.000000 1117.000000"
 preserveAspectRatio="xMidYMid meet">

<g transform="translate(0.000000,1117.000000) scale(0.100000,-0.100000)"
fill="#000000" stroke="none">
<path d="M5475 11114 c-663 -53 -1246 -373 -1630 -893 l-90 -122 -45 6 c-25 3
-92 12 -150 20 -135 19 -434 19 -570 0 -489 -66 -901 -264 -1249 -600 -138
-134 -219 -229 -315 -373 -189 -284 -304 -591 -351 -942 -27 -197 -15 -556 24
-722 l9 -38 -67 -47 c-446 -316 -755 -756 -885 -1264 -52 -203 -70 -344 -70
-564 0 -220 18 -361 70 -564 129 -506 441 -951 885 -1264 l67 -47 -9 -38 c-54
-230 -51 -631 6 -902 121 -578 485 -1096 993 -1417 268 -169 562 -274 892
-318 136 -19 435 -19 570 0 58 8 125 17 150 20 l45 6 90 -122 c351 -476 883
-792 1470 -874 166 -24 463 -24 620 -1 593 87 1119 400 1470 875 l90 122 45
-6 c25 -3 92 -12 150 -20 135 -19 434 -19 570 0 488 66 901 264 1249 600 138
134 219 229 315 373 189 284 304 591 351 942 27 197 15 556 -24 722 l-9 38 67
47 c369 261 644 607 805 1013 101 256 150 520 150 815 0 220 -18 361 -70 564
-130 507 -439 949 -885 1264 l-67 47 9 38 c54 230 51 631 -6 902 -121 578
-485 1096 -993 1417 -268 169 -562 274 -892 318 -136 19 -435 19 -570 0 -58
-8 -125 -17 -150 -20 l-45 -6 -90 122 c-350 474 -891 797 -1465 873 -119 16
-377 27 -465 20z m450 -129 c594 -87 1123 -421 1452 -916 36 -55 70 -99 74
-99 4 0 37 7 74 15 128 30 272 45 440 45 261 0 440 -28 675 -106 780 -258
1334 -944 1431 -1768 7 -63 9 -173 6 -300 -6 -186 -14 -255 -52 -431 -6 -30
-4 -33 93 -97 437 -291 748 -733 877 -1247 44 -179 59 -303 59 -506 0 -203
-15 -327 -59 -506 -129 -514 -440 -956 -877 -1247 -97 -64 -99 -67 -93 -97 38
-176 46 -245 52 -431 8 -292 -18 -477 -103 -734 -257 -774 -937 -1329 -1754
-1430 -192 -23 -513 -8 -693 34 -38 9 -72 16 -76 16 -4 0 -38 -44 -74 -99
-289 -434 -733 -746 -1246 -876 -321 -81 -691 -81 -1012 0 -513 130 -957 442
-1246 876 -36 55 -70 99 -74 99 -4 0 -37 -7 -74 -15 -128 -30 -272 -45 -440
-45 -261 0 -440 28 -675 106 -780 258 -1334 944 -1431 1768 -7 63 -9 173 -6
300 6 186 14 255 52 431 6 30 4 33 -93 97 -437 291 -748 733 -877 1247 -44
179 -59 303 -59 506 0 203 15 327 59 506 129 514 440 956 877 1247 97 64 99
67 93 97 -38 176 -46 245 -52 431 -8 292 18 477 103 734 257 774 937 1329
1754 1430 195 24 511 8 695 -35 37 -8 70 -15 74 -15 4 0 38 44 74 99 359 540
932 873 1607 935 85 8 336 -3 445 -19z"/>
<path d="M5375 10814 c-563 -76 -1047 -378 -1361 -849 -506 -760 -405 -1780
241 -2430 82 -83 266 -235 285 -235 16 0 73 148 105 269 l16 64 -38 31 c-367
296 -583 750 -585 1226 -1 264 51 486 168 720 324 652 1078 1006 1779 836 139
-34 231 -69 365 -137 213 -109 411 -275 544 -456 l60 -81 100 49 c55 27 126
59 158 71 l58 21 -16 26 c-139 218 -347 428 -571 576 -372 247 -864 360 -1308
299z"/>
<path d="M5405 10294 c-283 -44 -562 -184 -765 -384 -78 -77 -191 -214 -189
-229 0 -3 44 -37 97 -76 121 -88 315 -280 408 -405 220 -295 353 -612 410
-975 23 -150 23 -451 0 -599 -9 -59 -15 -110 -13 -112 34 -35 510 -35 544 0 2
2 -3 53 -13 112 -23 148 -23 430 0 588 80 558 383 1072 819 1391 53 39 96 73
96 76 2 16 -111 153 -190 230 -208 204 -483 340 -774 384 -122 18 -309 18
-430 -1z m423 -109 c275 -45 556 -193 741 -391 39 -42 71 -79 71 -84 0 -4 -35
-36 -77 -71 -439 -361 -725 -883 -793 -1446 -14 -117 -17 -325 -7 -474 l8
-116 -72 -7 c-39 -4 -105 -4 -146 0 l-74 6 8 117 c10 149 7 357 -7 474 -68
563 -354 1085 -792 1446 -43 35 -78 67 -78 71 0 5 32 42 71 84 182 195 464
345 733 390 110 19 301 19 414 1z"/>
<path d="M3092 9850 c-459 -48 -862 -239 -1182 -560 -290 -289 -470 -637 -541
-1045 -32 -184 -32 -456 0 -640 182 -1042 1138 -1740 2184 -1594 49 7 87 17
87 23 -1 23 -68 174 -109 244 -39 67 -44 72 -69 65 -45 -11 -321 -7 -407 6
-335 52 -630 194 -867 419 -357 340 -532 791 -496 1277 28 383 186 724 462
1001 222 222 476 363 776 430 190 42 468 49 621 15 24 -5 44 -9 45 -8 1 1 16
44 33 95 18 51 45 122 62 159 16 36 28 67 26 69 -2 2 -57 13 -123 24 -136 23
-378 33 -502 20z"/>
<path d="M7787 9850 c-384 -41 -736 -186 -1034 -426 -469 -380 -736 -972 -710
-1574 3 -74 11 -170 18 -213 12 -78 12 -78 38 -72 31 7 259 118 282 137 14 11
15 25 6 113 -17 174 14 420 78 611 39 117 117 275 192 389 88 133 292 337 423
424 521 346 1177 367 1705 53 245 -146 483 -400 609 -651 90 -178 150 -395
164 -596 9 -121 0 -318 -17 -397 -6 -24 -9 -43 -8 -44 1 -1 34 -12 72 -24 39
-13 110 -40 159 -61 50 -21 91 -37 93 -36 1 2 12 57 24 123 31 174 31 459 0
639 -143 818 -770 1447 -1581 1584 -144 25 -383 34 -513 21z"/>
<path d="M4321 9447 c-16 -40 -41 -112 -55 -160 l-25 -87 143 -142 c103 -103
161 -171 209 -243 247 -375 329 -803 236 -1233 -29 -133 -71 -247 -140 -382
-110 -214 -271 -407 -450 -540 -46 -34 -84 -65 -83 -69 0 -3 23 -53 51 -111
27 -58 58 -126 68 -153 l18 -47 26 16 c215 137 426 345 572 564 72 107 183
337 223 460 252 778 -3 1616 -648 2129 -49 39 -95 71 -102 71 -7 0 -26 -33
-43 -73z"/>
<path d="M3145 9333 c-358 -43 -623 -169 -866 -412 -257 -256 -392 -556 -415
-921 -6 -96 8 -297 23 -337 5 -12 15 -14 52 -9 162 23 213 27 366 27 336 0
628 -67 930 -216 293 -144 553 -357 741 -608 42 -56 80 -103 84 -105 28 -11
283 227 355 332 l40 59 -25 16 c-142 93 -398 341 -504 491 -191 266 -318 560
-378 878 -20 103 -23 149 -22 372 0 185 4 276 15 333 18 90 29 80 -111 97 -80
9 -220 11 -285 3z m280 -114 c2 -2 0 -36 -5 -74 -14 -107 -11 -417 4 -535 53
-388 196 -738 430 -1050 87 -117 258 -294 365 -380 l79 -64 -29 -38 c-40 -50
-169 -168 -183 -167 -6 0 -33 29 -61 65 -27 36 -104 118 -170 183 -342 336
-756 542 -1224 611 -143 21 -461 27 -586 11 -33 -5 -62 -6 -65 -4 -11 10 -4
292 9 363 74 420 346 779 726 960 102 48 249 95 345 109 41 6 86 13 100 15 30
5 259 1 265 -5z"/>
<path d="M7805 9330 c-122 -17 -113 -8 -98 -92 20 -103 28 -453 14 -574 -47
-400 -209 -786 -458 -1094 -83 -102 -269 -282 -373 -359 -47 -35 -86 -67 -88
-71 -5 -13 92 -134 173 -215 81 -81 202 -178 215 -173 4 2 42 50 85 107 239
318 597 575 988 710 227 78 442 114 687 113 138 0 198 -5 361 -28 37 -5 47 -3
52 9 15 40 29 241 23 337 -23 365 -158 665 -415 921 -210 211 -436 333 -721
390 -111 22 -343 32 -445 19z m415 -125 c533 -106 946 -528 1041 -1065 13 -71
20 -353 9 -363 -3 -2 -32 -1 -65 4 -125 16 -443 10 -586 -11 -468 -69 -882
-275 -1224 -611 -66 -65 -142 -147 -170 -183 -27 -36 -55 -65 -61 -65 -14 -1
-143 117 -183 167 l-29 38 79 64 c174 139 370 365 495 570 159 261 268 584
305 899 12 106 8 504 -6 548 -6 19 -3 22 27 26 59 9 291 -3 368 -18z"/>
<path d="M7425 9230 c-38 -16 -104 -49 -145 -73 -64 -36 -75 -46 -73 -67 10
-106 3 -348 -12 -440 -83 -509 -397 -938 -855 -1168 -232 -117 -404 -161 -662
-169 -148 -5 -269 3 -353 23 -18 4 -24 -5 -44 -68 -13 -40 -41 -113 -62 -162
-21 -50 -37 -91 -36 -92 1 -1 43 -9 92 -18 628 -114 1272 88 1720 539 397 399
604 965 556 1515 -15 166 -23 204 -41 207 -8 2 -46 -11 -85 -27z"/>
<path d="M4213 8853 c18 -368 149 -681 389 -927 l89 -91 -5 140 c-2 77 -12
176 -21 220 -40 193 -126 395 -233 544 -68 95 -156 195 -195 223 l-30 22 6
-131z m185 -265 c58 -103 96 -189 125 -288 38 -128 41 -146 24 -132 -17 15
-121 214 -143 273 -27 75 -63 219 -55 219 4 0 26 -33 49 -72z"/>
<path d="M6960 8909 c-144 -147 -259 -335 -324 -529 -50 -150 -67 -246 -73
-405 l-5 -140 67 65 c176 171 306 400 369 649 29 115 49 287 44 376 l-3 60
-75 -76z m-75 -336 c-34 -126 -48 -162 -112 -284 -60 -117 -89 -155 -78 -103
17 73 60 205 86 264 38 83 110 210 120 210 4 0 -3 -39 -16 -87z"/>
<path d="M2165 7504 c-192 -21 -225 -27 -225 -39 0 -24 68 -175 110 -247 39
-65 43 -68 73 -64 212 33 498 -2 732 -89 217 -80 398 -197 571 -370 225 -224
366 -483 435 -797 35 -159 37 -513 3 -629 -3 -11 14 -21 68 -38 60 -20 119
-43 244 -97 15 -7 41 133 54 296 24 285 -26 603 -136 875 -272 667 -888 1123
-1613 1195 -96 9 -248 11 -316 4z"/>
<path d="M8750 7499 c-466 -48 -925 -279 -1230 -619 -81 -91 -170 -206 -170
-220 0 -12 134 -66 239 -96 l91 -26 26 34 c15 18 75 80 133 138 534 528 1363
605 1991 185 550 -367 819 -1046 666 -1680 -92 -380 -315 -714 -617 -927 l-58
-41 43 -86 c24 -47 56 -119 71 -159 l28 -72 26 16 c150 96 328 253 446 393
568 683 595 1679 64 2391 -406 542 -1077 838 -1749 769z"/>
<path d="M1209 7169 c-222 -153 -426 -368 -562 -594 -364 -603 -369 -1375 -13
-1978 192 -325 477 -589 819 -758 533 -263 1181 -261 1710 5 218 110 417 260
567 426 81 91 170 206 170 220 0 12 -134 66 -239 96 l-91 26 -26 -34 c-15 -18
-75 -80 -133 -138 -534 -528 -1363 -605 -1991 -185 -550 367 -819 1046 -666
1680 92 380 315 714 617 927 l58 41 -40 78 c-21 44 -53 114 -70 156 -17 43
-32 79 -33 80 -1 2 -36 -20 -77 -48z"/>
<path d="M6570 7014 c-36 -19 -104 -50 -153 -70 l-87 -37 20 -34 c71 -121 265
-337 400 -446 299 -241 656 -388 1039 -427 658 -66 1319 222 1722 752 33 42
59 81 59 86 0 14 -128 66 -239 98 l-92 26 -21 -28 c-12 -16 -60 -69 -108 -118
-420 -435 -1058 -592 -1636 -402 -116 39 -326 146 -432 222 -114 82 -254 220
-334 328 -33 44 -63 82 -67 83 -3 1 -35 -14 -71 -33z"/>
<path d="M2238 6964 c36 -46 170 -160 257 -218 219 -147 459 -222 735 -233
l135 -5 -90 89 c-148 146 -331 256 -534 323 -127 41 -236 60 -391 67 l-134 6
22 -29z m483 -155 c115 -39 330 -151 317 -164 -8 -8 -183 44 -267 79 -83 35
-215 108 -226 125 -6 11 91 -11 176 -40z"/>
<path d="M8770 6979 c-298 -35 -607 -186 -815 -400 l-70 -71 135 5 c277 11
516 87 735 233 87 57 207 159 250 212 l27 32 -94 -1 c-51 -1 -127 -5 -168 -10z
m-65 -129 c-11 -18 -141 -90 -226 -126 -81 -34 -259 -88 -266 -80 -11 11 137
94 242 137 60 24 217 73 253 79 2 0 0 -4 -3 -10z"/>
<path d="M5060 6798 c-141 -229 -381 -474 -617 -630 -51 -34 -93 -65 -93 -69
0 -4 7 -41 16 -81 29 -137 44 -283 44 -438 0 -170 -10 -270 -41 -429 -11 -57
-17 -107 -12 -111 4 -4 50 -35 100 -69 232 -154 464 -393 603 -619 29 -47 36
-53 59 -49 14 3 82 15 151 28 108 21 156 24 355 24 199 0 247 -3 355 -24 69
-13 137 -25 151 -28 23 -4 30 2 59 49 141 229 381 474 617 630 51 34 93 65 93
69 0 4 -7 41 -16 81 -29 139 -44 284 -44 443 0 159 15 304 44 443 9 40 16 77
16 81 0 4 -42 35 -93 69 -236 156 -476 401 -617 630 -29 47 -36 53 -59 49 -14
-3 -82 -15 -151 -28 -108 -21 -156 -24 -355 -24 -199 0 -247 3 -355 24 -69 13
-137 25 -151 28 -23 4 -30 -2 -59 -49z m220 -95 c74 -14 149 -18 345 -18 196
0 271 4 345 18 52 10 102 20 111 23 12 3 33 -18 74 -76 143 -205 340 -401 556
-553 l65 -46 -20 -108 c-16 -90 -20 -151 -20 -368 0 -217 4 -278 20 -368 l20
-108 -65 -46 c-216 -152 -413 -348 -556 -552 -60 -85 -60 -85 -123 -65 -47 14
-280 34 -407 34 -127 0 -360 -20 -407 -34 -63 -20 -63 -20 -123 65 -143 204
-340 400 -556 552 l-65 46 20 108 c29 157 29 579 0 736 l-20 108 65 46 c216
152 413 348 556 553 41 58 62 79 74 76 9 -3 59 -13 111 -23z"/>
<path d="M1448 6703 c-34 -26 -103 -88 -153 -138 -194 -196 -326 -446 -382
-722 -25 -123 -25 -413 0 -536 57 -282 189 -529 392 -732 55 -55 127 -118 159
-140 50 -34 59 -37 67 -23 28 51 167 217 254 303 332 333 766 545 1240 606
136 17 400 15 539 -6 97 -14 120 -15 127 -4 31 50 30 478 -1 529 -7 11 -21 11
-82 1 -488 -81 -1015 27 -1449 295 -208 129 -430 332 -564 516 -38 53 -73 97
-77 97 -3 1 -35 -20 -70 -46z m114 -190 c78 -94 239 -253 328 -324 429 -343
979 -515 1534 -478 82 6 154 11 160 12 6 1 15 -29 20 -71 10 -83 -3 -228 -20
-225 -6 1 -78 6 -160 12 -555 37 -1105 -135 -1534 -478 -89 -71 -250 -230
-328 -323 -35 -43 -68 -78 -73 -78 -19 0 -163 148 -225 230 -74 98 -160 260
-198 373 -49 148 -61 229 -61 412 0 183 12 264 61 412 38 113 124 275 198 373
62 82 206 230 225 230 5 0 38 -35 73 -77z"/>
<path d="M9655 6653 c-87 -120 -260 -296 -383 -391 -306 -235 -665 -383 -1047
-433 -136 -17 -400 -15 -539 6 -97 14 -120 15 -127 4 -30 -50 -30 -479 1 -529
7 -11 21 -11 82 -1 748 124 1530 -186 2000 -793 37 -49 72 -96 77 -104 8 -14
17 -11 67 23 32 22 104 85 159 140 203 203 335 450 392 732 25 123 25 413 0
536 -56 276 -187 525 -382 722 -81 82 -207 186 -224 184 -3 0 -37 -44 -76 -96z
m191 -135 c188 -178 324 -426 381 -691 25 -115 25 -389 0 -504 -57 -265 -193
-513 -381 -691 -42 -40 -80 -72 -85 -72 -5 0 -38 35 -73 78 -78 93 -239 252
-328 323 -429 343 -979 515 -1534 478 -82 -6 -154 -11 -160 -12 -6 -1 -15 29
-20 71 -10 83 3 228 20 225 6 -1 78 -6 160 -12 555 -37 1105 135 1534 478 89
71 250 230 328 324 35 42 68 77 73 77 5 0 43 -32 85 -72z"/>
<path d="M7046 5933 c-66 -364 -27 -750 110 -1088 336 -822 1185 -1307 2072
-1183 53 7 82 15 82 24 0 23 -68 175 -110 246 -39 65 -43 68 -73 64 -212 -33
-498 2 -732 89 -217 80 -398 197 -571 370 -225 224 -366 483 -435 797 -35 159
-37 513 -3 629 3 11 -14 21 -68 38 -60 20 -119 43 -244 97 -8 4 -17 -26 -28
-83z"/>
<path d="M3071 5149 c-450 -47 -895 -268 -1203 -598 -77 -82 -188 -224 -188
-239 0 -14 128 -66 239 -98 l92 -26 21 28 c55 72 202 213 296 284 362 272 840
377 1282 280 369 -80 712 -299 932 -595 33 -44 61 -81 62 -83 2 -1 47 20 102
46 54 27 125 59 157 72 l57 23 -20 34 c-71 121 -265 337 -400 446 -403 325
-919 479 -1429 426z"/>
<path d="M7835 5154 c-11 -1 -66 -8 -122 -14 -64 -8 -103 -17 -103 -24 1 -23
68 -174 109 -244 39 -67 44 -72 69 -65 45 11 321 7 407 -6 335 -52 630 -194
867 -419 357 -340 532 -791 496 -1277 -28 -383 -186 -724 -462 -1001 -222
-222 -476 -363 -776 -430 -193 -43 -466 -50 -622 -15 -23 6 -43 9 -44 8 -1 -1
-16 -44 -33 -95 -18 -51 -45 -122 -62 -159 -16 -36 -28 -67 -26 -69 2 -2 57
-13 123 -25 174 -32 459 -32 639 0 731 128 1317 644 1529 1344 58 190 79 343
79 562 0 219 -21 372 -79 564 -226 745 -881 1281 -1663 1361 -93 9 -275 12
-326 4z"/>
<path d="M6879 4819 c-112 -77 -196 -149 -296 -252 -396 -409 -590 -970 -533
-1538 46 -447 257 -882 581 -1195 79 -77 238 -204 255 -204 15 0 65 118 98
233 l25 87 -143 142 c-103 103 -161 171 -209 243 -247 375 -329 803 -236 1233
29 133 71 247 140 382 110 214 271 407 450 540 46 34 84 65 84 69 0 3 -12 29
-27 56 -14 28 -45 95 -68 150 -24 55 -44 101 -45 102 -1 2 -35 -20 -76 -48z"/>
<path d="M3100 4629 c-220 -28 -424 -104 -605 -225 -88 -58 -207 -159 -251
-213 l-29 -34 135 6 c155 7 264 26 391 67 202 66 384 176 534 322 l90 87 -100
-1 c-55 0 -129 -4 -165 -9z m-85 -144 c-39 -32 -213 -118 -293 -144 -86 -29
-183 -51 -177 -40 11 17 143 90 226 125 73 31 235 82 264 83 6 0 -3 -11 -20
-24z"/>
<path d="M7975 4553 c148 -146 331 -256 534 -323 127 -41 236 -60 391 -67
l134 -6 -22 29 c-36 46 -170 160 -257 218 -219 147 -459 222 -735 233 l-135 5
90 -89z m330 -67 c50 -14 128 -40 174 -60 83 -35 215 -108 226 -125 6 -11 -91
11 -177 40 -80 26 -254 112 -293 144 -16 13 -28 24 -25 25 3 0 46 -11 95 -24z"/>
<path d="M3980 4298 c-235 -318 -599 -581 -992 -717 -228 -78 -444 -114 -688
-113 -138 0 -198 5 -361 28 -56 8 -54 11 -70 -133 -26 -239 21 -513 126 -740
127 -275 403 -551 678 -678 230 -106 507 -153 747 -126 150 17 139 8 122 94
-19 102 -27 452 -13 573 47 400 209 786 458 1094 83 102 269 282 373 359 47
35 86 67 88 71 5 13 -92 134 -173 215 -73 73 -198 175 -213 175 -4 0 -41 -46
-82 -102z m188 -124 c39 -36 85 -82 101 -102 l29 -38 -79 -64 c-107 -86 -278
-263 -365 -380 -234 -312 -377 -662 -430 -1050 -15 -118 -18 -428 -4 -535 5
-38 6 -72 3 -75 -10 -11 -291 -4 -363 9 -547 97 -974 524 -1071 1071 -13 71
-20 353 -9 363 3 2 32 1 65 -4 125 -16 443 -10 586 11 468 69 882 275 1224
611 66 65 143 147 170 183 28 36 55 65 61 65 6 1 43 -29 82 -65z"/>
<path d="M7119 4353 c-83 -62 -233 -213 -284 -287 l-40 -59 25 -16 c142 -93
398 -341 504 -491 191 -266 318 -560 378 -878 20 -103 23 -149 22 -372 0 -185
-4 -276 -15 -332 -18 -91 -30 -82 121 -99 240 -27 517 20 747 126 275 127 551
403 678 678 105 227 152 501 126 740 -16 144 -14 141 -70 133 -162 -23 -213
-27 -366 -27 -336 0 -628 67 -930 216 -293 144 -553 357 -741 608 -42 56 -80
103 -84 105 -4 1 -36 -19 -71 -45z m106 -179 c28 -36 104 -118 170 -183 342
-336 756 -542 1224 -611 143 -21 461 -27 586 -11 33 5 62 6 65 4 11 -10 4
-292 -9 -363 -97 -547 -524 -974 -1071 -1071 -72 -13 -353 -20 -363 -9 -3 3
-2 37 3 75 14 107 11 417 -4 535 -53 388 -196 738 -430 1050 -87 117 -258 294
-365 380 l-79 64 29 38 c40 50 169 168 183 167 6 0 34 -29 61 -65z"/>
<path d="M5468 4179 c-1053 -81 -1861 -1031 -1769 -2079 17 -194 21 -206 57
-203 31 3 265 115 282 136 6 7 6 52 2 117 -23 308 55 635 218 910 156 265 376
469 652 608 232 117 404 161 662 169 148 5 269 -3 353 -23 18 -4 24 5 44 68
13 40 41 113 62 162 21 50 37 91 36 92 -10 8 -207 36 -307 44 -139 11 -141 11
-292 -1z"/>
<path d="M6677 3793 c-30 -69 -50 -126 -72 -212 l-16 -64 38 -31 c229 -185
415 -455 508 -739 219 -671 -31 -1407 -614 -1806 -302 -206 -677 -306 -1028
-273 -221 21 -394 71 -593 173 -213 109 -411 275 -544 456 l-60 81 -100 -49
c-55 -27 -126 -59 -158 -71 l-58 -21 16 -26 c175 -276 450 -526 740 -676 598
-307 1323 -283 1892 64 314 192 580 485 737 813 355 745 208 1620 -370 2203
-82 83 -266 235 -285 235 -4 0 -19 -26 -33 -57z"/>
<path d="M1376 3581 c-100 -544 35 -1106 369 -1537 667 -860 1905 -1003 2752
-318 469 380 736 972 710 1574 -3 74 -11 170 -18 213 -12 78 -12 78 -38 72
-31 -7 -259 -118 -282 -137 -14 -11 -15 -25 -6 -113 17 -174 -14 -420 -78
-611 -39 -117 -117 -275 -192 -389 -88 -133 -292 -337 -423 -424 -521 -346
-1177 -367 -1705 -53 -245 146 -483 400 -609 651 -90 178 -150 395 -164 596
-9 121 0 318 17 397 6 24 9 43 8 44 -1 1 -33 12 -72 24 -57 19 -124 45 -241
96 -8 4 -17 -26 -28 -85z"/>
<path d="M5490 3661 c-92 -10 -140 -20 -140 -30 0 -4 7 -54 16 -112 23 -143
23 -427 0 -583 -80 -558 -383 -1072 -819 -1391 -53 -39 -96 -73 -96 -76 -2
-16 111 -153 190 -230 260 -255 615 -399 984 -399 369 0 724 144 984 399 79
77 192 214 190 230 0 3 -44 38 -97 76 -121 88 -315 280 -408 405 -220 295
-353 612 -410 975 -23 150 -23 451 0 599 9 59 15 110 13 112 -20 20 -292 37
-407 25z m278 -116 c2 -2 -1 -76 -8 -163 -42 -562 134 -1117 494 -1561 77 -95
210 -229 309 -310 42 -35 77 -67 77 -71 0 -19 -150 -166 -228 -225 -108 -81
-269 -164 -394 -204 -402 -127 -839 -51 -1180 204 -78 59 -228 206 -228 225 0
4 35 36 78 71 438 361 724 883 792 1446 14 117 17 325 7 475 l-8 117 43 4 c47
5 239 -1 246 -8z"/>
<path d="M4597 3221 c-238 -251 -367 -560 -384 -924 l-6 -131 30 22 c39 28
127 128 195 223 107 149 193 351 233 544 16 77 34 355 23 355 -3 0 -44 -40
-91 -89z m-43 -258 c-16 -71 -59 -204 -85 -263 -38 -82 -110 -210 -120 -210
-8 0 12 83 43 180 30 94 146 320 163 320 3 0 3 -12 -1 -27z"/>
<path d="M6564 3175 c2 -77 12 -176 21 -220 40 -193 126 -395 233 -544 68 -95
156 -195 195 -223 l30 -22 -6 131 c-18 368 -149 681 -389 927 l-89 91 5 -140z
m209 -314 c32 -60 64 -128 73 -152 27 -75 63 -219 55 -219 -10 0 -82 127 -120
210 -26 59 -69 191 -86 264 -11 52 18 14 78 -103z"/>
</g>
</svg>
